<svg xmlns="http://www.w3.org/2000/svg" viewBox="0 0 64 64" role="img" aria-labelledby="title desc">
  <title id="title">雪球戰車</title>
  <desc id="desc">帶有速度軌跡的雪球召喚師技能圖示</desc>
  <defs>
    <linearGradient id="bg" x1="8" y1="6" x2="56" y2="58" gradientUnits="userSpaceOnUse">
      <stop stop-color="#193a67"/>
      <stop offset="1" stop-color="#071528"/>
    </linearGradient>
    <radialGradient id="snow" cx="0" cy="0" r="1" gradientTransform="translate(41 27) rotate(128) scale(22)" gradientUnits="userSpaceOnUse">
      <stop stop-color="#fff"/>
      <stop offset=".62" stop-color="#cceeff"/>
      <stop offset="1" stop-color="#73aee1"/>
    </radialGradient>
  </defs>
  <rect x="1" y="1" width="62" height="62" rx="12" fill="url(#bg)" stroke="#7fc7ef" stroke-width="2"/>
  <path d="M7 38c10-1 16-5 23-12M9 47c12-2 19-7 26-17M13 54c10-3 16-7 22-14" fill="none" stroke="#85d8ff" stroke-linecap="round" stroke-width="3" opacity=".78"/>
  <circle cx="42" cy="27" r="13" fill="url(#snow)" stroke="#e8f8ff" stroke-width="2"/>
  <path d="M36 21l4 2 3-4 2 5 5-1-3 5 4 3-6 1-1 5-4-4-5 3 2-6-5-2 5-2z" fill="#fff" opacity=".72"/>
</svg>
